<svg width="197" height="54" viewBox="0 0 197 54" fill="none" xmlns="http://www.w3.org/2000/svg">
<path d="M86.6849 24.1483C85.8342 24.0934 84.824 24.066 83.6543 24.066H83.229V5.73429C83.7784 5.78006 84.1683 5.80295 84.3987 5.80295H84.9437C85.6437 5.80295 86.2241 5.76633 86.6849 5.69309V13.012H92.9322V5.73429C93.6676 5.78006 94.381 5.80295 95.0722 5.80295C95.7722 5.80295 96.2109 5.76633 96.3881 5.69309V24.1483C95.9627 24.0934 95.1209 24.066 93.8626 24.066H92.9322V16.3076H86.6849V24.1483Z" fill="#004E98"/>
<path d="M102.675 21.8964C101.869 21.0999 101.231 20.1433 100.761 19.0265C100.3 17.9096 100.07 16.6875 100.07 15.3601C100.07 14.0236 100.287 12.7603 100.721 11.5702C101.155 10.3801 101.776 9.33196 102.582 8.42568C103.389 7.51939 104.363 6.80077 105.506 6.26982C106.649 5.72971 107.93 5.45966 109.348 5.45966C111.793 5.45966 113.854 6.25609 115.529 7.84895C117.319 9.55167 118.214 11.8494 118.214 14.7422C118.214 17.5434 117.292 19.8732 115.449 21.7316C114.315 22.8759 112.963 23.6632 111.395 24.0934C110.624 24.304 109.72 24.4092 108.683 24.4092C107.655 24.4092 106.596 24.1895 105.506 23.7501C104.425 23.3107 103.482 22.6928 102.675 21.8964ZM103.765 15.1679C103.765 16.0192 103.902 16.8019 104.177 17.516C104.452 18.23 104.833 18.8434 105.32 19.356C106.357 20.4362 107.691 20.9763 109.321 20.9763C110.872 20.9763 112.117 20.4591 113.056 19.4247C114.013 18.3536 114.492 16.8935 114.492 15.0443C114.492 13.305 114.035 11.854 113.123 10.6914C112.139 9.44639 110.792 8.82389 109.082 8.82389C107.425 8.82389 106.109 9.45555 105.134 10.7189C104.221 11.8998 103.765 13.3828 103.765 15.1679Z" fill="#004E98"/>
<path d="M127.358 16.9667C127.093 16.985 126.809 16.9942 126.508 16.9942C126.206 16.9942 125.759 16.9713 125.165 16.9255V24.066H121.643V5.70682C122.883 5.54205 124.408 5.45966 126.215 5.45966C128.679 5.45966 130.513 5.93111 131.718 6.87401C132.932 7.80776 133.539 9.25415 133.539 11.2132C133.539 12.7328 132.985 14.0327 131.878 15.113C131.514 15.4608 131.098 15.7629 130.628 16.0192L133.34 21.9238C133.871 23.1414 134.279 23.8646 134.563 24.0934L134.496 24.1621C133.637 24.0156 132.285 24.0202 130.442 24.1758L127.358 16.9667ZM126.468 8.70031C126.016 8.70031 125.582 8.7232 125.165 8.76897V14.0144C125.599 14.0785 126.109 14.1106 126.694 14.1106C127.279 14.1106 127.77 14.0602 128.169 13.9595C128.568 13.8497 128.914 13.6849 129.206 13.4652C129.835 12.98 130.15 12.2522 130.15 11.2818C130.15 10.3115 129.822 9.62948 129.166 9.23584C128.555 8.87882 127.655 8.70031 126.468 8.70031Z" fill="#004E98"/>
<path d="M137.926 5.74802C138.812 5.78464 139.348 5.80295 139.534 5.80295H140.491C140.961 5.80295 141.337 5.76633 141.621 5.69309L141.607 24.066H137.926V5.74802Z" fill="#004E98"/>
<path d="M146.22 7.03879C146.22 6.73669 146.206 6.32475 146.18 5.80295H158.781L151.045 20.7704H155.87C157.128 20.7704 157.868 20.7338 158.09 20.6605C158.32 20.5781 158.502 20.5049 158.634 20.4408V24.2719C158.253 24.2353 157.939 24.2033 157.691 24.1758C157.443 24.1483 157.181 24.1255 156.907 24.1071C156.49 24.0797 155.684 24.066 154.487 24.066H145.542L153.544 9.09853H149.357C147.629 9.09853 146.53 9.19465 146.06 9.38689C146.167 8.92917 146.22 8.28378 146.22 7.45074V7.03879Z" fill="#004E98"/>
<path d="M163.872 21.8964C163.065 21.0999 162.427 20.1433 161.957 19.0265C161.497 17.9096 161.266 16.6875 161.266 15.3601C161.266 14.0236 161.483 12.7603 161.918 11.5702C162.352 10.3801 162.972 9.33196 163.778 8.42568C164.585 7.51939 165.56 6.80077 166.703 6.26982C167.846 5.72971 169.126 5.45966 170.544 5.45966C172.99 5.45966 175.05 6.25609 176.725 7.84895C178.515 9.55167 179.41 11.8494 179.41 14.7422C179.41 17.5434 178.488 19.8732 176.645 21.7316C175.511 22.8759 174.16 23.6632 172.591 24.0934C171.82 24.304 170.916 24.4092 169.88 24.4092C168.852 24.4092 167.793 24.1895 166.703 23.7501C165.622 23.3107 164.678 22.6928 163.872 21.8964ZM164.961 15.1679C164.961 16.0192 165.099 16.8019 165.374 17.516C165.648 18.23 166.029 18.8434 166.517 19.356C167.553 20.4362 168.887 20.9763 170.518 20.9763C172.068 20.9763 173.313 20.4591 174.253 19.4247C175.21 18.3536 175.688 16.8935 175.688 15.0443C175.688 13.305 175.232 11.854 174.319 10.6914C173.335 9.44639 171.989 8.82389 170.278 8.82389C168.621 8.82389 167.305 9.45555 166.331 10.7189C165.418 11.8998 164.961 13.3828 164.961 15.1679Z" fill="#004E98"/>
<path d="M182.959 24.066C183.012 23.7547 183.039 23.416 183.039 23.0498V5.80295H185.697L192.742 17.2551V6.73669C192.742 6.2332 192.697 5.92195 192.609 5.80295H196.198C196.153 6.16912 196.131 6.57191 196.131 7.01132V24.066H193.366L186.428 13.067V24.066H182.959Z" fill="#004E98"/>
<path d="M87.2835 44.8354C86.4478 44.8354 85.7035 44.7367 85.0506 44.5393C84.3977 44.3419 83.9146 44.1248 83.6012 43.8879C83.3531 43.7037 83.229 43.5392 83.229 43.3944C83.229 43.2892 83.2682 43.151 83.3465 42.9799C83.4379 42.8088 83.5359 42.6575 83.6403 42.5259C83.7579 42.3943 83.8493 42.3285 83.9146 42.3285C83.9537 42.3285 84.006 42.3482 84.0713 42.3877C84.1496 42.414 84.2345 42.4601 84.3259 42.5259C84.587 42.6707 84.9657 42.8417 85.4619 43.0391C85.9581 43.2365 86.5653 43.3352 87.2835 43.3352C87.7797 43.3352 88.2172 43.2431 88.5959 43.0589C88.9876 42.8615 89.2945 42.5851 89.5165 42.2298C89.7385 41.8745 89.8495 41.4666 89.8495 41.006C89.8495 40.4796 89.7058 40.0585 89.4185 39.7427C89.1443 39.4137 88.7787 39.1439 88.3217 38.9334C87.8777 38.7228 87.4011 38.5189 86.8918 38.3215C86.4739 38.1636 86.0626 37.9925 85.6578 37.8082C85.253 37.6109 84.8874 37.374 84.5609 37.0976C84.2345 36.8213 83.9733 36.4726 83.7774 36.0515C83.5816 35.6172 83.4836 35.0777 83.4836 34.4329C83.4836 33.7222 83.6599 33.0906 84.0125 32.5379C84.3781 31.9852 84.8874 31.5575 85.5403 31.2548C86.1932 30.939 86.9571 30.7811 87.832 30.7811C88.1062 30.7811 88.4131 30.8074 88.7526 30.8601C89.1051 30.9127 89.4447 30.9917 89.7711 31.0969C90.1106 31.2022 90.3848 31.3272 90.5938 31.472C90.8549 31.6299 90.9855 31.801 90.9855 31.9852C90.9855 32.0773 90.9463 32.2089 90.868 32.38C90.7896 32.5511 90.6982 32.7024 90.5938 32.834C90.5024 32.9656 90.424 33.0314 90.3587 33.0314C90.3065 33.0314 90.2347 33.0116 90.1433 32.9722C90.0649 32.9195 89.9604 32.8603 89.8299 32.7945C89.6209 32.6892 89.3532 32.5774 89.0268 32.4589C88.7003 32.3405 88.289 32.2813 87.7928 32.2813C87.3097 32.2813 86.8722 32.3668 86.4805 32.5379C86.1018 32.709 85.8014 32.959 85.5795 33.288C85.3705 33.617 85.2661 34.0249 85.2661 34.5118C85.2661 34.9855 85.3901 35.3606 85.6382 35.6369C85.8863 35.9133 86.2128 36.1436 86.6176 36.3278C87.0224 36.4989 87.4598 36.6765 87.9299 36.8608C88.3608 37.0318 88.7917 37.2227 89.2227 37.4332C89.6666 37.6306 90.0714 37.8806 90.4371 38.1833C90.8027 38.486 91.09 38.8676 91.2989 39.3282C91.5209 39.7756 91.6319 40.3349 91.6319 41.006C91.6319 41.5982 91.5274 42.1311 91.3185 42.6049C91.1226 43.0786 90.8288 43.48 90.4371 43.8089C90.0584 44.1379 89.6013 44.3945 89.066 44.5788C88.5436 44.7498 87.9495 44.8354 87.2835 44.8354Z" fill="#D1495B"/>
<path d="M96.9204 44.8354C96.6723 44.8354 96.4046 44.7959 96.1173 44.7169C95.8301 44.6512 95.5558 44.5261 95.2947 44.3419C95.0335 44.1445 94.8181 43.8682 94.6483 43.5129C94.4785 43.1444 94.3937 42.6772 94.3937 42.1114V35.8146H93.4143C93.1531 35.8146 93.0226 35.6172 93.0226 35.2224V34.9855C93.0226 34.5908 93.1531 34.3934 93.4143 34.3934H94.6287V32.3208C94.6548 32.0313 94.8638 31.8865 95.2555 31.8865H95.4514C95.8431 31.8865 96.039 32.0313 96.039 32.3208V34.3934H97.6843C97.9455 34.3934 98.076 34.5908 98.076 34.9855V35.2224C98.076 35.6172 97.9455 35.8146 97.6843 35.8146H96.039V41.9535C96.039 42.5456 96.1434 42.9404 96.3524 43.1378C96.5613 43.322 96.8094 43.4142 97.0967 43.4142C97.384 43.4142 97.5733 43.401 97.6647 43.3747C97.7561 43.3352 97.8475 43.3155 97.9389 43.3155C98.0303 43.3155 98.1022 43.3813 98.1544 43.5129C98.2197 43.6445 98.2654 43.7892 98.2915 43.9471C98.3307 44.0919 98.3503 44.1906 98.3503 44.2432C98.3503 44.4143 98.2654 44.5459 98.0956 44.638C97.9389 44.7169 97.7496 44.7696 97.5276 44.7959C97.3056 44.8222 97.1032 44.8354 96.9204 44.8354Z" fill="#D1495B"/>
<path d="M103.654 44.8354C102.662 44.8354 101.878 44.5525 101.304 43.9866C100.742 43.4207 100.462 42.6378 100.462 41.6376V34.7882C100.462 34.4986 100.723 34.3539 101.245 34.3539H101.324C101.846 34.3539 102.107 34.4986 102.107 34.7882V41.4797C102.107 42.0851 102.277 42.5588 102.616 42.9009C102.969 43.2299 103.465 43.3944 104.105 43.3944C104.549 43.3944 104.986 43.2694 105.417 43.0194C105.861 42.7694 106.246 42.4338 106.573 42.0127V34.7882C106.573 34.4986 106.834 34.3539 107.356 34.3539H107.435C107.957 34.3539 108.218 34.4986 108.218 34.7882V41.7956C108.218 42.3351 108.238 42.7825 108.277 43.1378C108.316 43.4931 108.355 43.7629 108.394 43.9471C108.434 44.1314 108.453 44.2432 108.453 44.2827C108.453 44.3748 108.408 44.4538 108.316 44.5196C108.238 44.5722 108.14 44.6183 108.022 44.6577C107.905 44.684 107.787 44.7038 107.67 44.7169C107.552 44.7301 107.461 44.7367 107.396 44.7367C107.239 44.7367 107.115 44.6643 107.023 44.5196C106.945 44.3616 106.88 44.1774 106.828 43.9669C106.788 43.7432 106.749 43.5392 106.71 43.3549C106.305 43.8155 105.829 44.1774 105.28 44.4406C104.745 44.7038 104.203 44.8354 103.654 44.8354Z" fill="#D1495B"/>
<path d="M114.714 44.8354C113.931 44.8354 113.252 44.6117 112.677 44.1643C112.116 43.7037 111.678 43.0786 111.365 42.289C111.064 41.4863 110.914 40.5783 110.914 39.565C110.914 37.8411 111.286 36.5318 112.031 35.6369C112.775 34.7289 113.728 34.2749 114.89 34.2749C115.504 34.2749 116.026 34.3671 116.457 34.5513C116.901 34.7355 117.313 34.979 117.691 35.2816V30.3074C117.691 30.0179 117.952 29.8731 118.475 29.8731H118.553C119.075 29.8731 119.337 30.0179 119.337 30.3074V41.7956C119.337 42.3351 119.356 42.7825 119.395 43.1378C119.435 43.4931 119.474 43.7629 119.513 43.9471C119.552 44.1314 119.572 44.2432 119.572 44.2827C119.572 44.3748 119.526 44.4538 119.435 44.5196C119.356 44.5722 119.258 44.6183 119.141 44.6577C119.023 44.684 118.906 44.7038 118.788 44.7169C118.671 44.7301 118.579 44.7367 118.514 44.7367C118.357 44.7367 118.233 44.6643 118.142 44.5196C118.063 44.3616 117.998 44.1774 117.946 43.9669C117.907 43.7432 117.868 43.5392 117.828 43.3549C117.345 43.855 116.843 44.2301 116.32 44.4801C115.811 44.7169 115.276 44.8354 114.714 44.8354ZM115.047 43.3944C115.478 43.3944 115.922 43.2826 116.379 43.0589C116.849 42.822 117.287 42.4798 117.691 42.0324V36.6239C117.339 36.3212 116.96 36.0975 116.555 35.9528C116.15 35.808 115.726 35.7356 115.282 35.7356C114.407 35.7356 113.748 36.058 113.304 36.7029C112.86 37.3345 112.638 38.2359 112.638 39.4071C112.638 40.6836 112.847 41.6705 113.265 42.368C113.682 43.0523 114.277 43.3944 115.047 43.3944Z" fill="#D1495B"/>
<path d="M123.713 48.8227C123.282 48.8227 123.067 48.7174 123.067 48.5069C123.067 48.4805 123.067 48.4476 123.067 48.4082C123.08 48.3818 123.112 48.3029 123.165 48.1713L125.064 43.5326V44.8156L121.382 34.9461C121.369 34.9198 121.356 34.8803 121.343 34.8276C121.33 34.775 121.323 34.7289 121.323 34.6895C121.323 34.4657 121.604 34.3539 122.166 34.3539H122.322C122.518 34.3539 122.688 34.3802 122.832 34.4329C122.975 34.4723 123.067 34.5513 123.106 34.6697L125.104 40.019C125.221 40.348 125.332 40.6836 125.437 41.0257C125.541 41.3679 125.639 41.6969 125.73 42.0127H125.77C125.874 41.71 125.979 41.381 126.083 41.0257C126.187 40.6573 126.298 40.3217 126.416 40.019L128.375 34.6697C128.414 34.5513 128.505 34.4723 128.649 34.4329C128.793 34.3802 128.969 34.3539 129.178 34.3539H129.237C129.759 34.3539 130.02 34.4657 130.02 34.6895C130.02 34.7553 130 34.8474 129.961 34.9658L124.927 48.4082C124.875 48.5529 124.764 48.6582 124.594 48.724C124.438 48.7898 124.242 48.8227 124.007 48.8227H123.713Z" fill="#D1495B"/>
<path d="M136.184 44.7564C135.622 44.7564 135.341 44.6446 135.341 44.4209C135.341 44.3814 135.348 44.3419 135.361 44.3024C135.374 44.2498 135.387 44.1972 135.4 44.1445L140.042 31.1759C140.108 30.9653 140.369 30.8601 140.826 30.8601H141.394C141.851 30.8601 142.112 30.9653 142.177 31.1759L146.82 44.1643C146.859 44.2564 146.878 44.3419 146.878 44.4209C146.878 44.6446 146.598 44.7564 146.036 44.7564H145.879C145.683 44.7564 145.514 44.7367 145.37 44.6972C145.226 44.6446 145.135 44.559 145.096 44.4406L143.94 41.2034H138.182L137.065 44.4406C137.026 44.559 136.935 44.6446 136.791 44.6972C136.647 44.7367 136.478 44.7564 136.282 44.7564H136.184ZM138.73 39.7032H143.411L141.355 33.8209C141.302 33.6367 141.257 33.4459 141.218 33.2485C141.178 33.0511 141.146 32.8603 141.12 32.6761H141.08C141.041 32.8603 140.996 33.0511 140.943 33.2485C140.904 33.4459 140.852 33.6367 140.787 33.8209L138.73 39.7032Z" fill="#D1495B"/>
<path d="M153.406 44.8354C152.845 44.8354 152.303 44.7169 151.781 44.4801C151.271 44.2301 150.775 43.855 150.292 43.3549C150.214 43.8682 150.109 44.2564 149.979 44.5196C149.939 44.6117 149.874 44.6775 149.783 44.7169C149.704 44.7433 149.593 44.7564 149.45 44.7564H149.371C148.98 44.7564 148.784 44.6117 148.784 44.3222V30.3074C148.784 30.0179 149.045 29.8731 149.567 29.8731H149.646C150.168 29.8731 150.429 30.0179 150.429 30.3074V35.2816C150.808 34.979 151.219 34.7355 151.663 34.5513C152.107 34.3671 152.629 34.2749 153.23 34.2749C154.392 34.2749 155.345 34.7289 156.09 35.6369C156.834 36.5318 157.206 37.8346 157.206 39.5453C157.206 40.5717 157.05 41.4863 156.736 42.289C156.436 43.0786 155.998 43.7037 155.424 44.1643C154.862 44.6117 154.19 44.8354 153.406 44.8354ZM153.073 43.3944C153.844 43.3944 154.438 43.0523 154.856 42.368C155.274 41.6705 155.483 40.6836 155.483 39.4071C155.483 38.2359 155.261 37.3345 154.817 36.7029C154.386 36.058 153.733 35.7356 152.858 35.7356C152.44 35.7356 152.016 35.808 151.585 35.9528C151.167 36.0975 150.782 36.3212 150.429 36.6239V42.0324C150.834 42.4798 151.265 42.822 151.722 43.0589C152.192 43.2826 152.642 43.3944 153.073 43.3944Z" fill="#D1495B"/>
<path d="M160.817 44.7564C160.294 44.7564 160.033 44.6117 160.033 44.3222V37.3937C160.033 36.8542 160.014 36.4068 159.975 36.0515C159.935 35.6962 159.896 35.4264 159.857 35.2422C159.818 35.0448 159.798 34.9329 159.798 34.9066C159.798 34.8145 159.837 34.7421 159.916 34.6895C160.007 34.6237 160.112 34.5776 160.229 34.5513C160.347 34.5118 160.464 34.4855 160.582 34.4723C160.699 34.4592 160.791 34.4526 160.856 34.4526C161.013 34.4526 161.13 34.525 161.209 34.6697C161.3 34.8145 161.365 34.9921 161.404 35.2027C161.457 35.4001 161.502 35.5843 161.542 35.7554C161.881 35.2816 162.24 34.9198 162.619 34.6697C163.011 34.4065 163.409 34.2749 163.814 34.2749C164.192 34.2749 164.473 34.3407 164.656 34.4723C164.852 34.5908 164.95 34.7816 164.95 35.0448C164.95 35.1632 164.93 35.308 164.891 35.479C164.865 35.6501 164.819 35.8014 164.754 35.933C164.702 36.0515 164.636 36.1107 164.558 36.1107C164.427 36.1107 164.297 36.0778 164.166 36.012C164.049 35.933 163.82 35.8935 163.481 35.8935C163.141 35.8935 162.834 35.9922 162.56 36.1896C162.286 36.387 162.07 36.591 161.914 36.8015C161.757 36.9989 161.679 37.0976 161.679 37.0976V44.3222C161.679 44.6117 161.417 44.7564 160.895 44.7564H160.817Z" fill="#D1495B"/>
<path d="M170.682 44.8354C169.207 44.8354 168.077 44.388 167.294 43.4931C166.523 42.5983 166.138 41.3021 166.138 39.6045C166.138 37.8938 166.53 36.5778 167.313 35.6567C168.097 34.7355 169.22 34.2749 170.682 34.2749C172.119 34.2749 173.216 34.7355 173.973 35.6567C174.744 36.5647 175.129 37.8806 175.129 39.6045C175.129 41.3152 174.75 42.618 173.993 43.5129C173.248 44.3945 172.145 44.8354 170.682 44.8354ZM170.624 43.4142C171.59 43.4142 172.295 43.1049 172.739 42.4864C173.196 41.8548 173.425 40.881 173.425 39.565C173.425 38.2491 173.196 37.2753 172.739 36.6436C172.295 36.012 171.59 35.6962 170.624 35.6962C169.67 35.6962 168.972 36.012 168.528 36.6436C168.084 37.2621 167.862 38.2359 167.862 39.565C167.862 40.881 168.084 41.8548 168.528 42.4864C168.972 43.1049 169.67 43.4142 170.624 43.4142Z" fill="#D1495B"/>
<path d="M180.522 44.8354C179.569 44.8354 178.772 44.5985 178.132 44.1248C177.492 43.6379 177.172 42.8878 177.172 41.8745C177.172 41.0455 177.368 40.3941 177.76 39.9203C178.152 39.4334 178.668 39.0781 179.307 38.8544C179.947 38.6176 180.646 38.4662 181.403 38.4004C182.174 38.3346 182.931 38.2951 183.675 38.282V37.3542C183.675 36.9068 183.519 36.5186 183.205 36.1896C182.892 35.8607 182.33 35.6962 181.521 35.6962C180.933 35.6962 180.417 35.7685 179.973 35.9133C179.542 36.0449 179.196 36.1831 178.935 36.3278C178.687 36.4594 178.53 36.5252 178.465 36.5252C178.374 36.5252 178.276 36.4594 178.171 36.3278C178.067 36.1962 177.975 36.0515 177.897 35.8935C177.819 35.7225 177.78 35.604 177.78 35.5382C177.78 35.3672 177.949 35.1829 178.289 34.9855C178.628 34.7882 179.079 34.6237 179.64 34.4921C180.202 34.3473 180.809 34.2749 181.462 34.2749C182.272 34.2749 182.964 34.4 183.538 34.65C184.113 34.8869 184.55 35.2356 184.851 35.6962C185.164 36.1567 185.321 36.716 185.321 37.374V41.7956C185.321 42.3351 185.34 42.7825 185.379 43.1378C185.419 43.4931 185.458 43.7629 185.497 43.9471C185.536 44.1314 185.556 44.2432 185.556 44.2827C185.556 44.3748 185.51 44.4538 185.419 44.5196C185.34 44.5722 185.242 44.6183 185.125 44.6577C185.007 44.684 184.89 44.7038 184.772 44.7169C184.655 44.7301 184.563 44.7367 184.498 44.7367C184.341 44.7367 184.217 44.6643 184.126 44.5196C184.047 44.3616 183.982 44.1774 183.93 43.9669C183.891 43.7432 183.852 43.5392 183.812 43.3549C183.564 43.6313 183.277 43.8813 182.951 44.105C182.624 44.3287 182.258 44.5064 181.854 44.638C181.462 44.7696 181.018 44.8354 180.522 44.8354ZM180.6 43.3944C181.318 43.3944 181.912 43.2563 182.383 42.9799C182.853 42.7036 183.284 42.3877 183.675 42.0324V39.7032C183.166 39.7032 182.637 39.7229 182.089 39.7624C181.54 39.7887 181.025 39.8611 180.541 39.9796C180.058 40.098 179.666 40.302 179.366 40.5915C179.079 40.8678 178.935 41.2626 178.935 41.7758C178.935 42.3022 179.072 42.7036 179.347 42.9799C179.634 43.2563 180.052 43.3944 180.6 43.3944Z" fill="#D1495B"/>
<path d="M191.704 44.8354C190.921 44.8354 190.242 44.6117 189.667 44.1643C189.106 43.7037 188.668 43.0786 188.355 42.289C188.055 41.4863 187.905 40.5783 187.905 39.565C187.905 37.8411 188.277 36.5318 189.021 35.6369C189.765 34.7289 190.719 34.2749 191.881 34.2749C192.494 34.2749 193.017 34.3671 193.448 34.5513C193.892 34.7355 194.303 34.979 194.682 35.2816V30.3074C194.682 30.0179 194.943 29.8731 195.465 29.8731H195.544C196.066 29.8731 196.327 30.0179 196.327 30.3074V41.7956C196.327 42.3351 196.347 42.7825 196.386 43.1378C196.425 43.4931 196.464 43.7629 196.503 43.9471C196.543 44.1314 196.562 44.2432 196.562 44.2827C196.562 44.3748 196.516 44.4538 196.425 44.5196C196.347 44.5722 196.249 44.6183 196.131 44.6577C196.014 44.684 195.896 44.7038 195.779 44.7169C195.661 44.7301 195.57 44.7367 195.504 44.7367C195.348 44.7367 195.224 44.6643 195.132 44.5196C195.054 44.3616 194.989 44.1774 194.936 43.9669C194.897 43.7432 194.858 43.5392 194.819 43.3549C194.336 43.855 193.833 44.2301 193.311 44.4801C192.801 44.7169 192.266 44.8354 191.704 44.8354ZM192.037 43.3944C192.468 43.3944 192.912 43.2826 193.369 43.0589C193.839 42.822 194.277 42.4798 194.682 42.0324V36.6239C194.329 36.3212 193.95 36.0975 193.546 35.9528C193.141 35.808 192.716 35.7356 192.273 35.7356C191.398 35.7356 190.738 36.058 190.294 36.7029C189.85 37.3345 189.628 38.2359 189.628 39.4071C189.628 40.6836 189.837 41.6705 190.255 42.368C190.673 43.0523 191.267 43.3944 192.037 43.3944Z" fill="#D1495B"/>
<path fill-rule="evenodd" clip-rule="evenodd" d="M12.2285 4.94117C21.7021 2.595 32.242 0 36.1879 0C42.0711 0 62.4934 5.26111 72.2691 7.85611C61.6225 11.3043 39.4938 18.2184 36.1879 18.2184C32.8819 18.2184 20.4934 14.5925 14.6991 12.7795L13.5971 12.4063L35.4058 10.2023C35.6902 10.6289 36.1879 10.9132 36.7389 10.9132C37.6276 10.9132 38.3385 10.2023 38.3385 9.31358C38.3385 8.42488 37.6276 7.71392 36.7389 7.71392C36.099 7.71392 35.548 8.08717 35.2814 8.63817L10.1134 11.1976V11.2154V11.2332C10.0779 11.3043 10.0423 11.3754 10.0068 11.4642C9.63351 12.2463 9.04697 13.4549 8.94032 15.5167C9.61574 15.6944 10.1312 16.3165 10.1312 17.063C10.1312 17.7562 9.68683 18.3605 9.06474 18.5738C9.11806 19.2492 9.18916 19.9247 9.26026 20.5645C9.40245 22.022 9.54464 23.3195 9.47355 23.9771C9.34913 25.3102 8.51375 26.6432 7.83834 27.0343C7.14515 27.4253 5.19001 26.6432 5.19001 25.7368C5.29665 25.4524 5.54549 25.1502 5.86542 24.777C6.55861 23.9238 7.5184 22.7685 7.60727 20.9556C7.64282 20.0846 7.67837 19.2315 7.71392 18.4139C7.25179 18.1295 6.94964 17.6318 6.94964 17.063C6.94964 16.441 7.30512 15.9077 7.82056 15.6411C7.85611 15.0368 7.89166 14.4858 7.94498 13.9526C8.12272 12.2818 8.5493 11.482 8.94032 10.8421L0 7.85611C3.21709 7.16292 7.60728 6.07871 12.2285 4.94117Z" fill="#004E98"/>
<path d="M60.5069 48.5257H11.4684C9.97538 48.5257 8.7312 49.7521 8.7312 51.2629V53.0758C8.7312 53.5735 9.14 54.0001 9.65545 54.0001H62.3198C62.8175 54.0001 63.2441 53.5913 63.2441 53.0758V51.2629C63.2263 49.7521 61.9999 48.5257 60.5069 48.5257ZM39.6403 30.9294L39.658 19.9984L35.9787 20.9226L32.4239 19.9984V31.6403C36.2632 31.7292 36.5298 31.6403 39.6403 30.9294ZM25.1011 31.8181V17.9188L17.8137 15.9637V30.485C20.9419 31.587 23.3237 31.6403 25.1011 31.8181ZM17.8137 38.3945V43.069H13.7257C12.9614 43.069 12.3749 43.6911 12.3749 44.4199V46.6949H59.6004V44.4199C59.6004 43.6556 58.9783 43.069 58.2496 43.069H54.1616V34.7508C51.7798 36.1727 49.4692 37.2392 46.892 38.039V43.069H39.6224V39.5498C37.1696 39.9053 35.1968 40.2607 32.3529 40.3496L32.3529 43.069H25.0833L25.1011 40.1719C21.9551 39.7275 19.9466 39.1054 17.8137 38.3945ZM46.892 28.9742V17.8122L54.1616 15.9815V25.4194C51.7621 26.9125 50.3935 27.6412 46.892 28.9742Z" fill="#D1495B"/>
<path fill-rule="evenodd" clip-rule="evenodd" d="M58.1223 21.8262C59.1354 26.1986 49.8396 31.282 37.3444 33.1661C24.8493 35.0501 13.9005 33.0416 12.8696 28.6692C12.763 28.2071 12.763 27.7272 12.8874 27.2651C12.0698 28.5804 11.7677 29.9134 12.0698 31.2287C13.3673 36.7919 25.187 39.6713 38.4642 37.6629C51.7414 35.6544 61.4638 29.5224 60.184 23.9591C59.8463 22.5194 58.8154 21.2575 57.2158 20.2088C57.6779 20.6887 57.9978 21.2397 58.1223 21.8262Z" fill="#004E98"/>
</svg>
